<mxfile host="app.diagrams.net" modified="2021-09-08T20:35:51.742Z" agent="5.0 (Windows NT 6.1; WOW64) AppleWebKit/537.36 (KHTML, like Gecko) Chrome/92.0.4515.159 YaBrowser/21.8.2.383 Yowser/2.5 Safari/537.36" etag="eY1kGu7Za5BRGeEHvLmC" version="15.1.2" type="github">
  <diagram id="Xi7N69Tv5nQwTXTsW1gU" name="Page-1">
    <mxGraphModel dx="856" dy="477" grid="1" gridSize="10" guides="1" tooltips="1" connect="1" arrows="1" fold="1" page="1" pageScale="1" pageWidth="827" pageHeight="1169" math="0" shadow="0">
      <root>
        <mxCell id="0" />
        <mxCell id="1" parent="0" />
        <mxCell id="NmLOHVoM2K33qMEJDw3y-1" value="Ñ…&amp;gt;5" style="rhombus;whiteSpace=wrap;html=1;" vertex="1" parent="1">
          <mxGeometry x="380" y="20" width="80" height="80" as="geometry" />
        </mxCell>
        <mxCell id="NmLOHVoM2K33qMEJDw3y-2" value="" style="endArrow=none;html=1;entryX=0;entryY=0.5;entryDx=0;entryDy=0;" edge="1" parent="1" target="NmLOHVoM2K33qMEJDw3y-1">
          <mxGeometry width="50" height="50" relative="1" as="geometry">
            <mxPoint x="240" y="160" as="sourcePoint" />
            <mxPoint x="400" y="130" as="targetPoint" />
            <Array as="points">
              <mxPoint x="240" y="60" />
            </Array>
          </mxGeometry>
        </mxCell>
        <mxCell id="NmLOHVoM2K33qMEJDw3y-3" value="1" style="text;html=1;align=center;verticalAlign=middle;resizable=0;points=[];autosize=1;strokeColor=none;fillColor=none;" vertex="1" parent="1">
          <mxGeometry x="240" y="40" width="20" height="20" as="geometry" />
        </mxCell>
        <mxCell id="NmLOHVoM2K33qMEJDw3y-4" value="" style="endArrow=none;html=1;entryX=1;entryY=0.5;entryDx=0;entryDy=0;" edge="1" parent="1" target="NmLOHVoM2K33qMEJDw3y-1">
          <mxGeometry width="50" height="50" relative="1" as="geometry">
            <mxPoint x="600" y="160" as="sourcePoint" />
            <mxPoint x="430" y="220" as="targetPoint" />
            <Array as="points">
              <mxPoint x="600" y="60" />
            </Array>
          </mxGeometry>
        </mxCell>
        <mxCell id="NmLOHVoM2K33qMEJDw3y-5" value="0" style="text;html=1;align=center;verticalAlign=middle;resizable=0;points=[];autosize=1;strokeColor=none;fillColor=none;" vertex="1" parent="1">
          <mxGeometry x="580" y="40" width="20" height="20" as="geometry" />
        </mxCell>
        <mxCell id="NmLOHVoM2K33qMEJDw3y-6" value="y&amp;gt;3" style="rhombus;whiteSpace=wrap;html=1;" vertex="1" parent="1">
          <mxGeometry x="200" y="160" width="80" height="80" as="geometry" />
        </mxCell>
        <mxCell id="NmLOHVoM2K33qMEJDw3y-7" value="" style="endArrow=none;html=1;entryX=0;entryY=0.5;entryDx=0;entryDy=0;" edge="1" parent="1" target="NmLOHVoM2K33qMEJDw3y-6">
          <mxGeometry width="50" height="50" relative="1" as="geometry">
            <mxPoint x="80" y="280" as="sourcePoint" />
            <mxPoint x="430" y="220" as="targetPoint" />
            <Array as="points">
              <mxPoint x="80" y="200" />
            </Array>
          </mxGeometry>
        </mxCell>
        <mxCell id="NmLOHVoM2K33qMEJDw3y-9" value="z=1" style="rounded=0;whiteSpace=wrap;html=1;" vertex="1" parent="1">
          <mxGeometry x="20" y="280" width="120" height="60" as="geometry" />
        </mxCell>
        <mxCell id="NmLOHVoM2K33qMEJDw3y-10" value="" style="endArrow=none;html=1;exitX=1;exitY=0.5;exitDx=0;exitDy=0;" edge="1" parent="1" source="NmLOHVoM2K33qMEJDw3y-6" target="NmLOHVoM2K33qMEJDw3y-11">
          <mxGeometry width="50" height="50" relative="1" as="geometry">
            <mxPoint x="380" y="270" as="sourcePoint" />
            <mxPoint x="400" y="280" as="targetPoint" />
            <Array as="points">
              <mxPoint x="400" y="200" />
            </Array>
          </mxGeometry>
        </mxCell>
        <mxCell id="NmLOHVoM2K33qMEJDw3y-11" value="z=2" style="rounded=0;whiteSpace=wrap;html=1;" vertex="1" parent="1">
          <mxGeometry x="340" y="280" width="120" height="60" as="geometry" />
        </mxCell>
        <mxCell id="NmLOHVoM2K33qMEJDw3y-12" value="" style="endArrow=none;html=1;" edge="1" parent="1" source="NmLOHVoM2K33qMEJDw3y-11" target="NmLOHVoM2K33qMEJDw3y-13">
          <mxGeometry width="50" height="50" relative="1" as="geometry">
            <mxPoint x="380" y="270" as="sourcePoint" />
            <mxPoint x="400" y="370" as="targetPoint" />
          </mxGeometry>
        </mxCell>
        <mxCell id="NmLOHVoM2K33qMEJDw3y-13" value="x=y-z" style="rounded=0;whiteSpace=wrap;html=1;" vertex="1" parent="1">
          <mxGeometry x="340" y="380" width="120" height="60" as="geometry" />
        </mxCell>
        <mxCell id="NmLOHVoM2K33qMEJDw3y-14" value="" style="endArrow=classic;html=1;exitX=0.5;exitY=1;exitDx=0;exitDy=0;" edge="1" parent="1" source="NmLOHVoM2K33qMEJDw3y-13">
          <mxGeometry width="50" height="50" relative="1" as="geometry">
            <mxPoint x="380" y="470" as="sourcePoint" />
            <mxPoint x="240" y="480" as="targetPoint" />
            <Array as="points">
              <mxPoint x="400" y="480" />
            </Array>
          </mxGeometry>
        </mxCell>
        <mxCell id="NmLOHVoM2K33qMEJDw3y-15" value="" style="endArrow=classic;html=1;exitX=0.5;exitY=1;exitDx=0;exitDy=0;" edge="1" parent="1" source="NmLOHVoM2K33qMEJDw3y-9">
          <mxGeometry width="50" height="50" relative="1" as="geometry">
            <mxPoint x="380" y="470" as="sourcePoint" />
            <mxPoint x="240" y="480" as="targetPoint" />
            <Array as="points">
              <mxPoint x="80" y="480" />
            </Array>
          </mxGeometry>
        </mxCell>
        <mxCell id="NmLOHVoM2K33qMEJDw3y-16" value="x&amp;gt;=10" style="rhombus;whiteSpace=wrap;html=1;" vertex="1" parent="1">
          <mxGeometry x="560" y="160" width="80" height="80" as="geometry" />
        </mxCell>
        <mxCell id="NmLOHVoM2K33qMEJDw3y-17" value="x=5" style="rounded=0;whiteSpace=wrap;html=1;" vertex="1" parent="1">
          <mxGeometry x="480" y="280" width="120" height="60" as="geometry" />
        </mxCell>
        <mxCell id="NmLOHVoM2K33qMEJDw3y-18" value="" style="endArrow=none;html=1;entryX=0;entryY=0.5;entryDx=0;entryDy=0;exitX=0.5;exitY=0;exitDx=0;exitDy=0;" edge="1" parent="1" source="NmLOHVoM2K33qMEJDw3y-17" target="NmLOHVoM2K33qMEJDw3y-16">
          <mxGeometry width="50" height="50" relative="1" as="geometry">
            <mxPoint x="380" y="270" as="sourcePoint" />
            <mxPoint x="430" y="220" as="targetPoint" />
            <Array as="points">
              <mxPoint x="540" y="200" />
            </Array>
          </mxGeometry>
        </mxCell>
        <mxCell id="NmLOHVoM2K33qMEJDw3y-20" value="" style="endArrow=classic;html=1;exitX=1;exitY=0.5;exitDx=0;exitDy=0;" edge="1" parent="1" source="NmLOHVoM2K33qMEJDw3y-16">
          <mxGeometry width="50" height="50" relative="1" as="geometry">
            <mxPoint x="380" y="270" as="sourcePoint" />
            <mxPoint x="600" y="480" as="targetPoint" />
            <Array as="points">
              <mxPoint x="660" y="200" />
              <mxPoint x="660" y="480" />
            </Array>
          </mxGeometry>
        </mxCell>
        <mxCell id="NmLOHVoM2K33qMEJDw3y-21" value="" style="endArrow=classic;html=1;exitX=0.5;exitY=1;exitDx=0;exitDy=0;" edge="1" parent="1" source="NmLOHVoM2K33qMEJDw3y-17">
          <mxGeometry width="50" height="50" relative="1" as="geometry">
            <mxPoint x="380" y="270" as="sourcePoint" />
            <mxPoint x="600" y="480" as="targetPoint" />
            <Array as="points">
              <mxPoint x="540" y="480" />
            </Array>
          </mxGeometry>
        </mxCell>
        <mxCell id="NmLOHVoM2K33qMEJDw3y-22" value="1" style="text;html=1;align=center;verticalAlign=middle;resizable=0;points=[];autosize=1;strokeColor=none;fillColor=none;" vertex="1" parent="1">
          <mxGeometry x="530" y="180" width="20" height="20" as="geometry" />
        </mxCell>
        <mxCell id="NmLOHVoM2K33qMEJDw3y-23" value="2" style="text;html=1;align=center;verticalAlign=middle;resizable=0;points=[];autosize=1;strokeColor=none;fillColor=none;" vertex="1" parent="1">
          <mxGeometry x="650" y="180" width="20" height="20" as="geometry" />
        </mxCell>
        <mxCell id="NmLOHVoM2K33qMEJDw3y-24" value="1" style="text;html=1;align=center;verticalAlign=middle;resizable=0;points=[];autosize=1;strokeColor=none;fillColor=none;" vertex="1" parent="1">
          <mxGeometry x="80" y="180" width="20" height="20" as="geometry" />
        </mxCell>
        <mxCell id="NmLOHVoM2K33qMEJDw3y-25" value="0" style="text;html=1;align=center;verticalAlign=middle;resizable=0;points=[];autosize=1;strokeColor=none;fillColor=none;" vertex="1" parent="1">
          <mxGeometry x="370" y="180" width="20" height="20" as="geometry" />
        </mxCell>
        <mxCell id="NmLOHVoM2K33qMEJDw3y-26" value="" style="endArrow=classic;html=1;" edge="1" parent="1">
          <mxGeometry width="50" height="50" relative="1" as="geometry">
            <mxPoint x="600" y="480" as="sourcePoint" />
            <mxPoint x="430" y="560" as="targetPoint" />
            <Array as="points">
              <mxPoint x="600" y="560" />
            </Array>
          </mxGeometry>
        </mxCell>
        <mxCell id="NmLOHVoM2K33qMEJDw3y-27" value="" style="endArrow=classic;html=1;" edge="1" parent="1">
          <mxGeometry width="50" height="50" relative="1" as="geometry">
            <mxPoint x="240" y="480" as="sourcePoint" />
            <mxPoint x="430" y="560" as="targetPoint" />
            <Array as="points">
              <mxPoint x="240" y="560" />
            </Array>
          </mxGeometry>
        </mxCell>
        <mxCell id="NmLOHVoM2K33qMEJDw3y-28" value="" style="endArrow=none;html=1;" edge="1" parent="1">
          <mxGeometry width="50" height="50" relative="1" as="geometry">
            <mxPoint x="430" y="560" as="sourcePoint" />
            <mxPoint x="430" y="640" as="targetPoint" />
          </mxGeometry>
        </mxCell>
      </root>
    </mxGraphModel>
  </diagram>
</mxfile>
